<?xml version="1.0" encoding="UTF-8"?>
<svg width="120" height="120" viewBox="0 0 120 120" xmlns="http://www.w3.org/2000/svg">
  <defs>
    <!-- 主渐变 -->
    <linearGradient id="iconicGradient" x1="0%" y1="0%" x2="100%" y2="100%">
      <stop offset="0%" style="stop-color:#0F172A"/>
      <stop offset="25%" style="stop-color:#1E40AF"/>
      <stop offset="75%" style="stop-color:#7C3AED"/>
      <stop offset="100%" style="stop-color:#EC4899"/>
    </linearGradient>
    
    <!-- 金属质感 -->
    <linearGradient id="metallic" x1="0%" y1="0%" x2="100%" y2="100%">
      <stop offset="0%" style="stop-color:#F8FAFC"/>
      <stop offset="50%" style="stop-color:#E2E8F0"/>
      <stop offset="100%" style="stop-color:#CBD5E1"/>
    </linearGradient>
    
    <!-- 阴影滤镜 -->
    <filter id="iconicShadow" x="-50%" y="-50%" width="200%" height="200%">
      <feGaussianBlur in="SourceAlpha" stdDeviation="4"/>
      <feOffset dx="0" dy="4" result="offset"/>
      <feComponentTransfer>
        <feFuncA type="linear" slope="0.4"/>
      </feComponentTransfer>
      <feMerge>
        <feMergeNode/>
        <feMergeNode in="SourceGraphic"/>
      </feMerge>
    </filter>
  </defs>
  
  <!-- 外圆环 -->
  <circle cx="60" cy="60" r="54" fill="url(#iconicGradient)" filter="url(#iconicShadow)"/>
  <circle cx="60" cy="60" r="48" fill="none" stroke="rgba(255,255,255,0.1)" stroke-width="0.5"/>
  
  <!-- LM 字母 - 雷克萨斯风格 -->
  <g fill="url(#metallic)" stroke="none">
    <!-- L 字母 - 现代几何 -->
    <path d="M 22 32 L 22 82 L 30 82 L 30 74 L 48 74 L 48 66 L 30 66 L 30 32 Z"/>
    
    <!-- M 字母 - 高辨识度设计 -->
    <path d="M 58 32 L 58 82 L 66 82 L 66 52 L 75 70 L 85 70 L 94 52 L 94 82 L 102 82 L 102 32 L 94 32 L 80 58 L 66 32 Z"/>
  </g>
  
  <!-- 内圈装饰 -->
  <circle cx="60" cy="60" r="42" fill="none" stroke="rgba(255,255,255,0.2)" stroke-width="1"/>
  
  <!-- 顶部高光 -->
  <ellipse cx="60" cy="35" rx="35" ry="8" fill="rgba(255,255,255,0.3)" opacity="0.6"/>
  
  <!-- 中心装饰点 -->
  <circle cx="60" cy="60" r="2" fill="rgba(255,255,255,0.5)"/>
  
  <!-- 外圈精细装饰 -->
  <circle cx="60" cy="60" r="52" fill="none" stroke="rgba(255,255,255,0.15)" stroke-width="0.5"/>
  <circle cx="60" cy="60" r="56" fill="none" stroke="rgba(255,255,255,0.1)" stroke-width="0.5"/>
</svg>