<?xml version="1.0" encoding="UTF-8"?>
<svg width="100" height="100" viewBox="0 0 100 100" xmlns="http://www.w3.org/2000/svg">
  <defs>
    <!-- 主要渐变 -->
    <linearGradient id="mainGradient" x1="0%" y1="0%" x2="100%" y2="100%">
      <stop offset="0%" style="stop-color:#60A5FA"/>
      <stop offset="50%" style="stop-color:#A78BFA"/>
      <stop offset="100%" style="stop-color:#F472B6"/>
    </linearGradient>
    
    <!-- 阴影渐变 -->
    <linearGradient id="shadowGradient" x1="0%" y1="0%" x2="100%" y2="100%">
      <stop offset="0%" style="stop-color:#1E40AF"/>
      <stop offset="100%" style="stop-color:#7C3AED"/>
    </linearGradient>
    
    <!-- 高光渐变 -->
    <linearGradient id="highlightGradient" x1="0%" y1="0%" x2="100%" y2="100%">
      <stop offset="0%" style="stop-color:#FFFFFF" stop-opacity="0.8"/>
      <stop offset="100%" style="stop-color:#FFFFFF" stop-opacity="0.2"/>
    </linearGradient>
  </defs>
  
  <!-- 阴影层 -->
  <circle cx="52" cy="52" r="40" fill="url(#shadowGradient)" opacity="0.3"/>
  
  <!-- 主体圆形 -->
  <circle cx="50" cy="50" r="40" fill="url(#mainGradient)"/>
  
  <!-- L 字母 (3D效果) -->
  <g transform="translate(50, 50)">
    <!-- L 阴影 -->
    <path d="M -18 -15 L -18 17 L -5 17 L -5 10 L -12 10 L -12 -15 Z" 
          fill="url(#shadowGradient)" 
          transform="translate(2, 2)" 
          opacity="0.4"/>
    
    <!-- L 主体 -->
    <path d="M -20 -17 L -20 15 L -7 15 L -7 8 L -14 8 L -14 -17 Z" 
          fill="white"/>
    
    <!-- L 高光 -->
    <path d="M -20 -17 L -20 -10 L -14 -10 L -14 -17 Z" 
          fill="url(#highlightGradient)"/>
  </g>
  
  <!-- M 字母 (3D效果) -->
  <g transform="translate(50, 50)">
    <!-- M 阴影 -->
    <path d="M 2 -15 L 2 17 L 8 17 L 8 3 L 13 13 L 18 3 L 18 17 L 24 17 L 24 -15 L 18 -15 L 13 -5 L 8 -15 L 2 -15 Z" 
          fill="url(#shadowGradient)" 
          transform="translate(2, 2)" 
          opacity="0.4"/>
    
    <!-- M 主体 -->
    <path d="M 0 -17 L 0 15 L 6 15 L 6 1 L 11 11 L 16 1 L 16 15 L 22 15 L 22 -17 L 16 -17 L 11 -7 L 6 -17 Z" 
          fill="white"/>
    
    <!-- M 高光 -->
    <path d="M 0 -17 L 0 -10 L 6 -10 L 6 -17 Z M 16 -17 L 16 -10 L 22 -10 L 22 -17 Z" 
          fill="url(#highlightGradient)"/>
  </g>
  
  <!-- 整体高光 -->
  <circle cx="50" cy="50" r="38" fill="none" stroke="url(#highlightGradient)" stroke-width="2" opacity="0.5"/>
  
  <!-- 科技感装饰 -->
  <circle cx="35" cy="35" r="1.5" fill="rgba(255,255,255,0.6)"/>
  <circle cx="65" cy="35" r="1.5" fill="rgba(255,255,255,0.6)"/>
  <circle cx="50" cy="25" r="1" fill="rgba(255,255,255,0.4)"/>
</svg>