<?xml version="1.0" encoding="UTF-8"?>
<svg width="120" height="120" viewBox="0 0 120 120" xmlns="http://www.w3.org/2000/svg">
  <defs>
    <!-- 金属质感渐变 -->
    <linearGradient id="metalGradient" x1="0%" y1="0%" x2="100%" y2="100%">
      <stop offset="0%" style="stop-color:#1E3A8A"/>
      <stop offset="30%" style="stop-color:#3B82F6"/>
      <stop offset="70%" style="stop-color:#8B5CF6"/>
      <stop offset="100%" style="stop-color:#EC4899"/>
    </linearGradient>
    
    <!-- 高光渐变 -->
    <radialGradient id="highlightGradient" cx="30%" cy="30%" r="70%">
      <stop offset="0%" style="stop-color:#FFFFFF" stop-opacity="0.8"/>
      <stop offset="100%" style="stop-color:#FFFFFF" stop-opacity="0.1"/>
    </radialGradient>
    
    <!-- 阴影 -->
    <filter id="shadow" x="-50%" y="-50%" width="200%" height="200%">
      <feGaussianBlur in="SourceAlpha" stdDeviation="3"/>
      <feOffset dx="0" dy="2" result="offset"/>
      <feComponentTransfer>
        <feFuncA type="linear" slope="0.3"/>
      </feComponentTransfer>
      <feMerge>
        <feMergeNode/>
        <feMergeNode in="SourceGraphic"/>
      </feMerge>
    </filter>
  </defs>
  
  <!-- 外圆环 -->
  <circle cx="60" cy="60" r="55" fill="url(#metalGradient)" filter="url(#shadow)"/>
  <circle cx="60" cy="60" r="45" fill="none" stroke="rgba(255,255,255,0.3)" stroke-width="1"/>
  
  <!-- LM 字母组合 - 几何化设计 -->
  <g fill="white" stroke="none">
    <!-- L 字母 - 简洁几何 -->
    <rect x="20" y="30" width="8" height="50" rx="1"/>
    <rect x="20" y="72" width="25" height="8" rx="1"/>
    
    <!-- M 字母 - 现代几何设计 -->
    <!-- 左竖线 -->
    <rect x="55" y="30" width="8" height="50" rx="1"/>
    <!-- 右竖线 -->
    <rect x="87" y="30" width="8" height="50" rx="1"/>
    <!-- 左斜线 -->
    <polygon points="63,30 75,50 71,52 63,38"/>
    <!-- 右斜线 -->
    <polygon points="87,30 75,50 79,52 87,38"/>
    <!-- 中间短竖线 -->
    <rect x="73" y="50" width="4" height="30" rx="1"/>
  </g>
  
  <!-- 高光效果 -->
  <ellipse cx="45" cy="45" rx="25" ry="15" fill="url(#highlightGradient)" opacity="0.6"/>
  
  <!-- 装饰性元素 -->
  <circle cx="60" cy="60" r="3" fill="rgba(255,255,255,0.4)"/>
  <circle cx="40" cy="40" r="1.5" fill="rgba(255,255,255,0.7)"/>
  <circle cx="80" cy="40" r="1.5" fill="rgba(255,255,255,0.7)"/>
  
  <!-- 外圈装饰 -->
  <circle cx="60" cy="60" r="52" fill="none" stroke="rgba(255,255,255,0.2)" stroke-width="0.5"/>
</svg>